<svg width="139" height="59" viewBox="0 0 139 59" fill="none" xmlns="http://www.w3.org/2000/svg">
<path fill-rule="evenodd" clip-rule="evenodd" d="M78.1073 36.1513C77.2373 36.1513 76.5993 35.958 76.1933 35.5713C75.8066 35.1653 75.6133 34.653 75.6133 34.0343V33.3963C75.6133 32.7776 75.8066 32.275 76.1933 31.8883C76.5993 31.4823 77.2373 31.2793 78.1073 31.2793C78.9773 31.2793 79.6056 31.4823 79.9923 31.8883C80.3983 32.275 80.6013 32.7776 80.6013 33.3963V34.0343C80.6013 34.653 80.3983 35.1653 79.9923 35.5713C79.6056 35.958 78.9773 36.1513 78.1073 36.1513ZM75.9613 37.7753H80.2533V53.0003H75.9613V37.7753ZM104.92 37.7753V54.6243C104.92 55.9776 104.582 57.012 103.905 57.7273C103.229 58.4426 102.136 58.8003 100.628 58.8003H98.3662V55.4653H100.628V37.7753H104.92ZM102.774 36.1513C101.904 36.1513 101.266 35.958 100.86 35.5713C100.474 35.1653 100.28 34.653 100.28 34.0343V33.3963C100.28 32.7776 100.474 32.275 100.86 31.8883C101.266 31.4823 101.904 31.2793 102.774 31.2793C103.644 31.2793 104.273 31.4823 104.659 31.8883C105.065 32.275 105.268 32.7776 105.268 33.3963V34.0343C105.268 34.653 105.065 35.1653 104.659 35.5713C104.273 35.958 103.644 36.1513 102.774 36.1513ZM120.178 52.9998C119.405 52.9998 118.757 52.7581 118.235 52.2748C117.732 51.7914 117.413 51.1438 117.278 50.3318H117.104C116.872 51.3178 116.36 52.0718 115.567 52.5938C114.774 53.0964 113.798 53.3478 112.638 53.3478C111.111 53.3478 109.941 52.9418 109.129 52.1298C108.317 51.3178 107.911 50.2448 107.911 48.9108C107.911 47.3061 108.491 46.1171 109.651 45.3438C110.83 44.5511 112.425 44.1548 114.436 44.1548H116.843V43.1978C116.843 42.4631 116.65 41.8831 116.263 41.4578C115.876 41.0131 115.229 40.7908 114.32 40.7908C113.469 40.7908 112.793 40.9744 112.29 41.3418C111.787 41.7091 111.372 42.1248 111.043 42.5888L108.491 40.3268C109.11 39.4181 109.883 38.7124 110.811 38.2098C111.758 37.6878 113.034 37.4268 114.639 37.4268C116.804 37.4268 118.428 37.9004 119.511 38.8478C120.594 39.7951 121.135 41.1774 121.135 42.9948V49.6648H122.556V52.9998H120.178ZM114.233 50.3608C114.948 50.3608 115.557 50.2061 116.06 49.8968C116.582 49.5874 116.843 49.0848 116.843 48.3888V46.5908H114.755C113.073 46.5908 112.232 47.1611 112.232 48.3018V48.7368C112.232 49.2974 112.406 49.7131 112.754 49.9838C113.102 50.2351 113.595 50.3608 114.233 50.3608ZM87.4207 52.7968C88.3101 53.1641 89.3154 53.3478 90.4367 53.3478C91.5581 53.3478 92.5537 53.1641 93.4237 52.7968C94.3131 52.4294 95.0574 51.8978 95.6567 51.2018C96.2754 50.5058 96.7491 49.6648 97.0777 48.6788C97.4064 47.6928 97.5707 46.5908 97.5707 45.3728C97.5707 44.1548 97.4064 43.0528 97.0777 42.0668C96.7491 41.0808 96.2754 40.2494 95.6567 39.5728C95.0574 38.8768 94.3131 38.3451 93.4237 37.9778C92.5537 37.6104 91.5581 37.4268 90.4367 37.4268C89.3154 37.4268 88.3101 37.6104 87.4207 37.9778C86.5507 38.3451 85.8064 38.8768 85.1877 39.5728C84.5884 40.2494 84.1244 41.0808 83.7957 42.0668C83.4671 43.0528 83.3027 44.1548 83.3027 45.3728C83.3027 46.5908 83.4671 47.6928 83.7957 48.6788C84.1244 49.6648 84.5884 50.5058 85.1877 51.2018C85.8064 51.8978 86.5507 52.4294 87.4207 52.7968ZM92.4087 49.1718C91.9447 49.6938 91.2874 49.9548 90.4367 49.9548C89.5861 49.9548 88.9287 49.6938 88.4647 49.1718C88.0007 48.6498 87.7687 47.9054 87.7687 46.9388V43.8358C87.7687 42.8691 88.0007 42.1248 88.4647 41.6028C88.9287 41.0808 89.5861 40.8198 90.4367 40.8198C91.2874 40.8198 91.9447 41.0808 92.4087 41.6028C92.8727 42.1248 93.1047 42.8691 93.1047 43.8358V46.9388C93.1047 47.9054 92.8727 48.6498 92.4087 49.1718ZM56.6523 52.9998H61.0603V45.5758H64.2213L67.7593 52.9998H72.6603L68.6873 45.0538C69.9247 44.5898 70.843 43.8455 71.4423 42.8208C72.061 41.7961 72.3703 40.5975 72.3703 39.2248C72.3703 38.2581 72.2253 37.3785 71.9353 36.5858C71.6453 35.7931 71.2297 35.1165 70.6883 34.5558C70.1663 33.9758 69.5283 33.5311 68.7743 33.2218C68.0203 32.9125 67.1793 32.7578 66.2513 32.7578H56.6523V52.9998ZM67.2373 41.3708C66.87 41.6995 66.3577 41.8638 65.7003 41.8638H61.0603V36.5858H65.7003C66.3577 36.5858 66.87 36.7598 67.2373 37.1078C67.624 37.4365 67.8173 37.9295 67.8173 38.5868V39.8628C67.8173 40.5201 67.624 41.0228 67.2373 41.3708ZM44.308 52.9998C43.5347 52.9998 42.887 52.7581 42.365 52.2748C41.8624 51.7914 41.5434 51.1438 41.408 50.3318H41.234C41.002 51.3178 40.4897 52.0718 39.697 52.5938C38.9044 53.0964 37.928 53.3478 36.768 53.3478C35.2407 53.3478 34.071 52.9418 33.259 52.1298C32.447 51.3178 32.041 50.2448 32.041 48.9108C32.041 47.3061 32.621 46.1171 33.781 45.3438C34.9604 44.5511 36.5554 44.1548 38.566 44.1548H40.973V43.1978C40.973 42.4631 40.7797 41.8831 40.393 41.4578C40.0063 41.0131 39.3587 40.7908 38.45 40.7908C37.5993 40.7908 36.9227 40.9744 36.42 41.3418C35.9174 41.7091 35.5017 42.1248 35.173 42.5888L32.621 40.3268C33.2397 39.4181 34.013 38.7124 34.941 38.2098C35.8884 37.6878 37.1644 37.4268 38.769 37.4268C40.9343 37.4268 42.5583 37.9004 43.641 38.8478C44.7237 39.7951 45.265 41.1774 45.265 42.9948V49.6648H46.686V52.9998H44.308ZM38.363 50.3608C39.0783 50.3608 39.6874 50.2061 40.19 49.8968C40.712 49.5874 40.973 49.0848 40.973 48.3888V46.5908H38.885C37.203 46.5908 36.362 47.1611 36.362 48.3018V48.7368C36.362 49.2974 36.536 49.7131 36.884 49.9838C37.232 50.2351 37.725 50.3608 38.363 50.3608ZM17.7969 32.7578V52.9998H29.9189V49.0848H22.2049V32.7578H17.7969Z" fill="url(#paint0_linear_387_81)"/>
<path fill-rule="evenodd" clip-rule="evenodd" d="M89.2751 19.448H89.4201V22H93.7121V0.540039H89.4201V9.32704H89.2751C89.0625 8.47637 88.5695 7.78037 87.7961 7.23904C87.0421 6.69771 86.1721 6.42704 85.1861 6.42704C83.2528 6.42704 81.7931 7.10371 80.8071 8.45704C79.8211 9.81037 79.3281 11.7824 79.3281 14.373C79.3281 16.9637 79.8211 18.9454 80.8071 20.318C81.7931 21.6714 83.2528 22.348 85.1861 22.348C85.6695 22.348 86.1335 22.2707 86.5781 22.116C87.0421 21.9807 87.4481 21.7874 87.7961 21.536C88.1635 21.2654 88.4728 20.956 88.7241 20.608C88.9755 20.2407 89.1591 19.854 89.2751 19.448ZM88.6081 18.288C88.0861 18.6747 87.4191 18.868 86.6071 18.868C85.7951 18.868 85.1185 18.5877 84.5771 18.027C84.0551 17.447 83.7941 16.6737 83.7941 15.707V13.068C83.7941 12.1014 84.0551 11.3377 84.5771 10.777C85.1185 10.197 85.7951 9.90704 86.6071 9.90704C87.4191 9.90704 88.0861 10.11 88.6081 10.516C89.1495 10.9027 89.4201 11.444 89.4201 12.14V16.635C89.4201 17.331 89.1495 17.882 88.6081 18.288ZM116.009 20.8692C116.783 21.6232 117.914 22.0002 119.402 22.0002H121.954V18.6652H119.17V10.1102H122.186V6.77523H119.17V2.65723H115.313V5.15123C115.313 5.67323 115.207 6.07923 114.994 6.36923C114.782 6.63989 114.385 6.77523 113.805 6.77523H112.732V10.1102H114.878V17.5632C114.878 19.0132 115.255 20.1152 116.009 20.8692ZM134.477 21.2748C134.999 21.7581 135.647 21.9998 136.42 21.9998H138.798V18.6648H137.377V11.9948C137.377 10.1774 136.836 8.79509 135.753 7.84776C134.671 6.90042 133.047 6.42676 130.881 6.42676C129.277 6.42676 128.001 6.68776 127.053 7.20976C126.125 7.71242 125.352 8.41809 124.733 9.32676L127.285 11.5888C127.614 11.1248 128.03 10.7091 128.532 10.3418C129.035 9.97442 129.712 9.79076 130.562 9.79076C131.471 9.79076 132.119 10.0131 132.505 10.4578C132.892 10.8831 133.085 11.4631 133.085 12.1978V13.1548H130.678C128.668 13.1548 127.073 13.5511 125.893 14.3438C124.733 15.1171 124.153 16.3061 124.153 17.9108C124.153 19.2448 124.559 20.3178 125.371 21.1298C126.183 21.9418 127.353 22.3478 128.88 22.3478C130.04 22.3478 131.017 22.0964 131.809 21.5938C132.602 21.0718 133.114 20.3178 133.346 19.3318H133.52C133.656 20.1438 133.975 20.7914 134.477 21.2748ZM132.302 18.8968C131.8 19.2061 131.191 19.3608 130.475 19.3608C129.837 19.3608 129.344 19.2351 128.996 18.9838C128.648 18.7131 128.474 18.2974 128.474 17.7368V17.3018C128.474 16.1611 129.315 15.5908 130.997 15.5908H133.085V17.3888C133.085 18.0848 132.824 18.5874 132.302 18.8968ZM108.978 21.9998C108.205 21.9998 107.557 21.7581 107.035 21.2748C106.532 20.7914 106.213 20.1438 106.078 19.3318H105.904C105.672 20.3178 105.16 21.0718 104.367 21.5938C103.574 22.0964 102.598 22.3478 101.438 22.3478C99.9106 22.3478 98.7409 21.9418 97.9289 21.1298C97.1169 20.3178 96.7109 19.2448 96.7109 17.9108C96.7109 16.3061 97.2909 15.1171 98.4509 14.3438C99.6303 13.5511 101.225 13.1548 103.236 13.1548H105.643V12.1978C105.643 11.4631 105.45 10.8831 105.063 10.4578C104.676 10.0131 104.029 9.79076 103.12 9.79076C102.269 9.79076 101.593 9.97442 101.09 10.3418C100.587 10.7091 100.172 11.1248 99.8429 11.5888L97.2909 9.32676C97.9096 8.41809 98.6829 7.71242 99.6109 7.20976C100.558 6.68776 101.834 6.42676 103.439 6.42676C105.604 6.42676 107.228 6.90042 108.311 7.84776C109.394 8.79509 109.935 10.1774 109.935 11.9948V18.6648H111.356V21.9998H108.978ZM103.033 19.3608C103.748 19.3608 104.357 19.2061 104.86 18.8968C105.382 18.5874 105.643 18.0848 105.643 17.3888V15.5908H103.555C101.873 15.5908 101.032 16.1611 101.032 17.3018V17.7368C101.032 18.2974 101.206 18.7131 101.554 18.9838C101.902 19.2351 102.395 19.3608 103.033 19.3608ZM55.9531 21.9998V6.77476H60.2451V9.35576H60.4191C60.6898 8.56309 61.1635 7.87676 61.8401 7.29676C62.5168 6.71676 63.4545 6.42676 64.6531 6.42676C66.2191 6.42676 67.3985 6.94876 68.1911 7.99276C69.0031 9.03676 69.4091 10.5254 69.4091 12.4588V21.9998H65.1171V12.8068C65.1171 11.8208 64.9625 11.0958 64.6531 10.6318C64.3438 10.1484 63.7928 9.90676 63.0001 9.90676C62.6521 9.90676 62.3138 9.95509 61.9851 10.0518C61.6565 10.1291 61.3568 10.2644 61.0861 10.4578C60.8348 10.6511 60.6318 10.8928 60.4771 11.1828C60.3225 11.4534 60.2451 11.7724 60.2451 12.1398V21.9998H55.9531ZM42.9169 21.7968C43.8256 22.1641 44.8599 22.3478 46.0199 22.3478C47.4119 22.3478 48.6492 22.1254 49.7319 21.6808C50.8339 21.2361 51.7233 20.6174 52.3999 19.8248L50.2539 17.1568C49.7706 17.6594 49.2486 18.0944 48.6879 18.4618C48.1273 18.8098 47.4022 18.9838 46.5129 18.9838C45.3529 18.9838 44.5022 18.6938 43.9609 18.1138C43.4196 17.5144 43.1489 16.7121 43.1489 15.7068V15.4748H52.9219V14.1988C52.9219 13.1741 52.7866 12.1978 52.5159 11.2698C52.2646 10.3224 51.8489 9.49109 51.2689 8.77576C50.7083 8.06042 49.9736 7.49009 49.0649 7.06476C48.1756 6.63942 47.1026 6.42676 45.8459 6.42676C44.7052 6.42676 43.6902 6.62009 42.8009 7.00676C41.9116 7.37409 41.1576 7.90576 40.5389 8.60176C39.9396 9.29776 39.4852 10.1388 39.1759 11.1248C38.8666 12.0914 38.7119 13.1741 38.7119 14.3728C38.7119 15.5908 38.8666 16.6928 39.1759 17.6788C39.5046 18.6648 39.9782 19.5058 40.5969 20.2018C41.2349 20.8784 42.0082 21.4101 42.9169 21.7968ZM43.8739 10.4578C44.3766 9.87776 45.0629 9.58776 45.9329 9.58776C46.8029 9.58776 47.4409 9.87776 47.8469 10.4578C48.2723 11.0184 48.4849 11.7628 48.4849 12.6908V12.9518H43.1489V12.7198C43.1489 11.7724 43.3906 11.0184 43.8739 10.4578ZM22.0254 6.77476H26.3174V9.32676H26.4624C26.6751 8.47609 27.1584 7.78009 27.9124 7.23876C28.6857 6.69742 29.5654 6.42676 30.5514 6.42676C32.4847 6.42676 33.9444 7.10342 34.9304 8.45676C35.9164 9.81009 36.4094 11.7821 36.4094 14.3728C36.4094 16.9634 35.9164 18.9451 34.9304 20.3178C33.9444 21.6711 32.4847 22.3478 30.5514 22.3478C30.0487 22.3478 29.5751 22.2704 29.1304 22.1158C28.6857 21.9804 28.2797 21.7871 27.9124 21.5358C27.5644 21.2651 27.2647 20.9558 27.0134 20.6078C26.7621 20.2404 26.5784 19.8538 26.4624 19.4478H26.3174V27.7998H22.0254V6.77476ZM29.1304 18.8678C29.9424 18.8678 30.6094 18.5874 31.1314 18.0268C31.6727 17.4468 31.9434 16.6734 31.9434 15.7068V13.0678C31.9434 12.1011 31.6727 11.3374 31.1314 10.7768C30.6094 10.1968 29.9424 9.90676 29.1304 9.90676C28.3184 9.90676 27.6417 10.1098 27.1004 10.5158C26.5784 10.9024 26.3174 11.4438 26.3174 12.1398V16.6348C26.3174 17.3308 26.5784 17.8818 27.1004 18.2878C27.6417 18.6744 28.3184 18.8678 29.1304 18.8678ZM6.02146 21.6812C7.12346 22.1258 8.34146 22.3482 9.67546 22.3482C11.0095 22.3482 12.2275 22.1258 13.3295 21.6812C14.4315 21.2365 15.3691 20.5792 16.1425 19.7092C16.9158 18.8198 17.5151 17.7275 17.9405 16.4322C18.3658 15.1175 18.5785 13.5998 18.5785 11.8792C18.5785 10.1585 18.3658 8.65049 17.9405 7.35516C17.5151 6.04049 16.9158 4.94816 16.1425 4.07816C15.3691 3.18882 14.4315 2.52182 13.3295 2.07716C12.2275 1.63249 11.0095 1.41016 9.67546 1.41016C8.34146 1.41016 7.12346 1.63249 6.02146 2.07716C4.91946 2.52182 3.98179 3.18882 3.20846 4.07816C2.43513 4.94816 1.83579 6.04049 1.41046 7.35516C0.985128 8.65049 0.772461 10.1585 0.772461 11.8792C0.772461 13.5998 0.985128 15.1175 1.41046 16.4322C1.83579 17.7275 2.43513 18.8198 3.20846 19.7092C3.98179 20.5792 4.91946 21.2365 6.02146 21.6812ZM12.7785 17.1282C12.0438 17.9982 11.0095 18.4332 9.67546 18.4332C8.34146 18.4332 7.29746 17.9982 6.54346 17.1282C5.80879 16.2582 5.44146 15.0112 5.44146 13.3872V10.3712C5.44146 8.74716 5.80879 7.50016 6.54346 6.63016C7.29746 5.76016 8.34146 5.32516 9.67546 5.32516C11.0095 5.32516 12.0438 5.76016 12.7785 6.63016C13.5325 7.50016 13.9095 8.74716 13.9095 10.3712V13.3872C13.9095 15.0112 13.5325 16.2582 12.7785 17.1282Z" fill="white"/>
<defs>
<linearGradient id="paint0_linear_387_81" x1="17.7969" y1="45.0398" x2="122.556" y2="45.0398" gradientUnits="userSpaceOnUse">
<stop stop-color="#6366F1"/>
<stop offset="0.485" stop-color="#A855F7"/>
<stop offset="1" stop-color="#EC4899"/>
</linearGradient>
</defs>
</svg>
